<svg width="16" height="16" viewBox="0 0 16 16" fill="none" xmlns="http://www.w3.org/2000/svg">
<path fill-rule="evenodd" clip-rule="evenodd" d="M2.86225 2.86225C3.1226 2.6019 3.54471 2.6019 3.80506 2.86225L8.00032 7.05751L12.1956 2.86225C12.4559 2.6019 12.878 2.60191 13.1384 2.86225C13.3987 3.1226 13.3987 3.54471 13.1384 3.80506L8.94313 8.00032L13.1384 12.1956C13.3987 12.4559 13.3987 12.878 13.1384 13.1384C12.878 13.3987 12.4559 13.3987 12.1956 13.1384L8.00032 8.94313L3.80506 13.1384C3.54471 13.3987 3.1226 13.3987 2.86225 13.1384C2.60191 12.878 2.6019 12.4559 2.86225 12.1956L7.05751 8.00032L2.86225 3.80506C2.6019 3.54471 2.6019 3.1226 2.86225 2.86225Z" fill="#9A9CA5"/>
</svg>
