<svg width="43" height="31" viewBox="0 0 43 31" fill="none" xmlns="http://www.w3.org/2000/svg">
<path d="M42.3214 11.1149C42.3214 10.623 42.2722 10.1311 42.223 9.63924C42.0753 7.52418 41.8292 5.114 40.4509 3.44162C39.2696 2.01519 37.399 1.67087 35.6762 1.47412C33.4611 1.22819 31.246 1.08063 29.0309 0.98225C24.5023 0.7855 20.0229 0.883875 15.4943 1.03144C13.1807 1.08063 10.8672 1.12981 8.55367 1.32656C5.69867 1.5725 2.79445 1.966 1.4654 4.81887C0.284016 7.37662 0.431688 10.5738 0.431688 13.3283C0.431688 15.7877 0.431688 18.247 0.530136 20.7064C0.677809 23.9036 0.825481 28.0354 4.27117 29.4126C6.09247 30.1504 8.30755 30.3472 10.2765 30.4455C12.3439 30.5931 14.4113 30.5439 16.528 30.5931C20.9089 30.6423 25.2407 30.4947 29.6216 30.4455C32.6735 30.3964 35.7746 30.3472 38.6789 29.3634C41.1893 28.5272 41.8292 25.8219 42.1738 23.4609C42.5183 21.1491 42.4199 18.7389 42.4199 16.4271C42.3707 14.558 42.3707 12.8364 42.3214 11.1149Z" fill="white"/>
<path d="M27.9978 15.6903C24.3551 13.526 20.7618 11.4602 17.1191 9.2959C17.1191 13.5752 17.1191 17.8053 17.1191 22.0355C20.7618 19.9204 24.3551 17.8053 27.9978 15.6903Z" fill="#FC5A5A"/>
</svg>
